<svg width="960" height="1280" viewBox="0 0 960 1280" fill="none" xmlns="http://www.w3.org/2000/svg">
  <rect width="960" height="1280" fill="#FEE2E2"/>
  <rect x="68" y="110" width="824" height="1060" rx="44" fill="#FCA5A5" opacity="0.38"/>
  <rect x="122" y="172" width="716" height="936" rx="30" fill="#ffffff" opacity="0.75"/>
  <circle cx="236" cy="252" r="94" fill="#DC2626" opacity="0.15"/>
  <circle cx="682" cy="304" r="124" fill="#B91C1C" opacity="0.13"/>
  <circle cx="488" cy="962" r="210" fill="#DC2626" opacity="0.1"/>
  <rect x="206" y="420" width="548" height="24" rx="12" fill="#DC2626" opacity="0.32"/>
  <rect x="206" y="470" width="462" height="18" rx="9" fill="#DC2626" opacity="0.25"/>
  <rect x="206" y="540" width="548" height="174" rx="20" fill="#FEE2E2"/>
  <rect x="236" y="580" width="280" height="18" rx="9" fill="#DC2626" opacity="0.25"/>
  <rect x="236" y="616" width="228" height="14" rx="7" fill="#DC2626" opacity="0.2"/>
  <circle cx="674" cy="627" r="46" fill="#DC2626" opacity="0.2"/>
  <rect x="206" y="760" width="356" height="18" rx="9" fill="#DC2626" opacity="0.22"/>
  <rect x="206" y="798" width="270" height="14" rx="7" fill="#DC2626" opacity="0.17"/>
</svg>
